# xmcd CD database file
#
# Track frame offsets:
#	150
#	30337
#	59730
#
# Disc length: 1197 seconds
#
# Revision: 0
# Processed by: cddbd v1.5PL3 Copyright (c) Steve Scherf et al.
# Submitted via: CDex 1.50beta9
#
DISCID=2004ab03
DTITLE=吉岡秀隆 - ラストソング
DYEAR=1994
DGENRE=J-POP
TTITLE0=ラストソング
TTITLE1=光あるうちに行け
TTITLE2=ラストソング　カラオケ
EXTD=YEAR: 1994
EXTT0=
EXTT1=
EXTT2=
PLAYORDER=
